<svg id="visual" viewBox="0 0 1920 1080" width="1920" height="1080" xmlns="http://www.w3.org/2000/svg" xmlns:xlink="http://www.w3.org/1999/xlink" version="1.1"><rect x="0" y="0" width="1920" height="1080" fill="#f5f5f5"></rect><g fill="#2ec586"><circle r="85" cx="1455" cy="867"></circle><circle r="6" cx="1173" cy="121"></circle><circle r="69" cx="427" cy="869"></circle><circle r="66" cx="1672" cy="384"></circle><circle r="30" cx="872" cy="164"></circle><circle r="10" cx="1024" cy="328"></circle><circle r="42" cx="279" cy="256"></circle><circle r="75" cx="1579" cy="693"></circle><circle r="25" cx="9" cy="13"></circle><circle r="46" cx="932" cy="1062"></circle><circle r="38" cx="718" cy="470"></circle><circle r="37" cx="1269" cy="1014"></circle><circle r="65" cx="53" cy="767"></circle><circle r="76" cx="1849" cy="900"></circle><circle r="41" cx="1321" cy="680"></circle><circle r="71" cx="246" cy="900"></circle><circle r="35" cx="141" cy="597"></circle><circle r="37" cx="1084" cy="845"></circle><circle r="32" cx="479" cy="311"></circle><circle r="52" cx="401" cy="466"></circle><circle r="43" cx="1447" cy="194"></circle><circle r="64" cx="879" cy="658"></circle><circle r="15" cx="38" cy="1032"></circle><circle r="25" cx="1623" cy="962"></circle><circle r="51" cx="778" cy="969"></circle><circle r="15" cx="1894" cy="315"></circle><circle r="82" cx="533" cy="131"></circle><circle r="72" cx="1629" cy="145"></circle><circle r="62" cx="712" cy="738"></circle><circle r="48" cx="1469" cy="535"></circle><circle r="39" cx="168" cy="118"></circle><circle r="71" cx="32" cy="380"></circle><circle r="38" cx="964" cy="22"></circle><circle r="71" cx="506" cy="634"></circle><circle r="61" cx="398" cy="1060"></circle><circle r="9" cx="1902" cy="82"></circle><circle r="60" cx="1273" cy="517"></circle><circle r="68" cx="1759" cy="738"></circle><circle r="22" cx="299" cy="728"></circle><circle r="13" cx="1708" cy="562"></circle><circle r="61" cx="307" cy="13"></circle><circle r="12" cx="1296" cy="294"></circle><circle r="70" cx="1914" cy="1078"></circle><circle r="13" cx="791" cy="312"></circle><circle r="40" cx="1421" cy="22"></circle><circle r="7" cx="1474" cy="1055"></circle><circle r="48" cx="715" cy="16"></circle><circle r="46" cx="1873" cy="528"></circle><circle r="24" cx="1077" cy="516"></circle><circle r="66" cx="638" cy="1072"></circle><circle r="32" cx="598" cy="890"></circle><circle r="5" cx="887" cy="471"></circle><circle r="35" cx="904" cy="845"></circle><circle r="37" cx="5" cy="194"></circle><circle r="21" cx="204" cy="407"></circle></g></svg>