<svg id="visual" viewBox="0 0 900 600" width="900" height="600" xmlns="http://www.w3.org/2000/svg" xmlns:xlink="http://www.w3.org/1999/xlink" version="1.1"><rect x="0" y="0" width="900" height="600" fill="#f5f5f5"></rect><path d="M0 324L12.5 302.2C25 280.3 50 236.7 75 212.2C100 187.7 125 182.3 150 196.2C175 210 200 243 225 263.3C250 283.7 275 291.3 300 280.8C325 270.3 350 241.7 375 247.2C400 252.7 425 292.3 450 296.8C475 301.3 500 270.7 525 240C550 209.3 575 178.7 600 165.5C625 152.3 650 156.7 675 164.3C700 172 725 183 750 182.7C775 182.3 800 170.7 825 173.3C850 176 875 193 887.5 201.5L900 210L900 601L887.5 601C875 601 850 601 825 601C800 601 775 601 750 601C725 601 700 601 675 601C650 601 625 601 600 601C575 601 550 601 525 601C500 601 475 601 450 601C425 601 400 601 375 601C350 601 325 601 300 601C275 601 250 601 225 601C200 601 175 601 150 601C125 601 100 601 75 601C50 601 25 601 12.5 601L0 601Z" fill="#f5f5f5"></path><path d="M0 192L12.5 205.3C25 218.7 50 245.3 75 275.7C100 306 125 340 150 331.5C175 323 200 272 225 245.3C250 218.7 275 216.3 300 236.7C325 257 350 300 375 305.3C400 310.7 425 278.3 450 254.3C475 230.3 500 214.7 525 223.2C550 231.7 575 264.3 600 271.3C625 278.3 650 259.7 675 245.2C700 230.7 725 220.3 750 219C775 217.7 800 225.3 825 225.3C850 225.3 875 217.7 887.5 213.8L900 210L900 601L887.5 601C875 601 850 601 825 601C800 601 775 601 750 601C725 601 700 601 675 601C650 601 625 601 600 601C575 601 550 601 525 601C500 601 475 601 450 601C425 601 400 601 375 601C350 601 325 601 300 601C275 601 250 601 225 601C200 601 175 601 150 601C125 601 100 601 75 601C50 601 25 601 12.5 601L0 601Z" fill="#e1f0e7"></path><path d="M0 249L12.5 272.7C25 296.3 50 343.7 75 349.8C100 356 125 321 150 315.2C175 309.3 200 332.7 225 346.8C250 361 275 366 300 356.2C325 346.3 350 321.7 375 305.7C400 289.7 425 282.3 450 296.7C475 311 500 347 525 364.3C550 381.7 575 380.3 600 355.5C625 330.7 650 282.3 675 270.8C700 259.3 725 284.7 750 310.7C775 336.7 800 363.3 825 371.7C850 380 875 370 887.5 365L900 360L900 601L887.5 601C875 601 850 601 825 601C800 601 775 601 750 601C725 601 700 601 675 601C650 601 625 601 600 601C575 601 550 601 525 601C500 601 475 601 450 601C425 601 400 601 375 601C350 601 325 601 300 601C275 601 250 601 225 601C200 601 175 601 150 601C125 601 100 601 75 601C50 601 25 601 12.5 601L0 601Z" fill="#ccead8"></path><path d="M0 417L12.5 417C25 417 50 417 75 407.7C100 398.3 125 379.7 150 375C175 370.3 200 379.7 225 371C250 362.3 275 335.7 300 341.5C325 347.3 350 385.7 375 388.2C400 390.7 425 357.3 450 351.7C475 346 500 368 525 371.7C550 375.3 575 360.7 600 355.5C625 350.3 650 354.7 675 350.8C700 347 725 335 750 342.5C775 350 800 377 825 378.2C850 379.3 875 354.7 887.5 342.3L900 330L900 601L887.5 601C875 601 850 601 825 601C800 601 775 601 750 601C725 601 700 601 675 601C650 601 625 601 600 601C575 601 550 601 525 601C500 601 475 601 450 601C425 601 400 601 375 601C350 601 325 601 300 601C275 601 250 601 225 601C200 601 175 601 150 601C125 601 100 601 75 601C50 601 25 601 12.5 601L0 601Z" fill="#b7e4ca"></path><path d="M0 453L12.5 451.7C25 450.3 50 447.7 75 429.2C100 410.7 125 376.3 150 376.7C175 377 200 412 225 425.3C250 438.7 275 430.3 300 427.3C325 424.3 350 426.7 375 418.3C400 410 425 391 450 380.7C475 370.3 500 368.7 525 367.5C550 366.3 575 365.7 600 372.2C625 378.7 650 392.3 675 402.8C700 413.3 725 420.7 750 409.5C775 398.3 800 368.7 825 369C850 369.3 875 399.7 887.5 414.8L900 430L900 601L887.5 601C875 601 850 601 825 601C800 601 775 601 750 601C725 601 700 601 675 601C650 601 625 601 600 601C575 601 550 601 525 601C500 601 475 601 450 601C425 601 400 601 375 601C350 601 325 601 300 601C275 601 250 601 225 601C200 601 175 601 150 601C125 601 100 601 75 601C50 601 25 601 12.5 601L0 601Z" fill="#a1debc"></path><path d="M0 453L12.5 459.3C25 465.7 50 478.3 75 464.8C100 451.3 125 411.7 150 394.5C175 377.3 200 382.7 225 388.5C250 394.3 275 400.7 300 404.7C325 408.7 350 410.3 375 410.8C400 411.3 425 410.7 450 421.8C475 433 500 456 525 455.8C550 455.7 575 432.3 600 430.5C625 428.7 650 448.3 675 460.7C700 473 725 478 750 468.7C775 459.3 800 435.7 825 423.7C850 411.7 875 411.3 887.5 411.2L900 411L900 601L887.5 601C875 601 850 601 825 601C800 601 775 601 750 601C725 601 700 601 675 601C650 601 625 601 600 601C575 601 550 601 525 601C500 601 475 601 450 601C425 601 400 601 375 601C350 601 325 601 300 601C275 601 250 601 225 601C200 601 175 601 150 601C125 601 100 601 75 601C50 601 25 601 12.5 601L0 601Z" fill="#8ad8ae"></path><path d="M0 473L12.5 467.2C25 461.3 50 449.7 75 457.7C100 465.7 125 493.3 150 494.3C175 495.3 200 469.7 225 456.3C250 443 275 442 300 454.3C325 466.7 350 492.3 375 496.7C400 501 425 484 450 472.8C475 461.7 500 456.3 525 460.7C550 465 575 479 600 489.7C625 500.3 650 507.7 675 496.2C700 484.7 725 454.3 750 447.2C775 440 800 456 825 470.2C850 484.3 875 496.7 887.5 502.8L900 509L900 601L887.5 601C875 601 850 601 825 601C800 601 775 601 750 601C725 601 700 601 675 601C650 601 625 601 600 601C575 601 550 601 525 601C500 601 475 601 450 601C425 601 400 601 375 601C350 601 325 601 300 601C275 601 250 601 225 601C200 601 175 601 150 601C125 601 100 601 75 601C50 601 25 601 12.5 601L0 601Z" fill="#71d2a1"></path><path d="M0 521L12.5 523C25 525 50 529 75 525.5C100 522 125 511 150 510.3C175 509.7 200 519.3 225 514.7C250 510 275 491 300 484.2C325 477.3 350 482.7 375 488.8C400 495 425 502 450 508.5C475 515 500 521 525 526.2C550 531.3 575 535.7 600 531.3C625 527 650 514 675 513.2C700 512.3 725 523.7 750 520.3C775 517 800 499 825 490.3C850 481.7 875 482.3 887.5 482.7L900 483L900 601L887.5 601C875 601 850 601 825 601C800 601 775 601 750 601C725 601 700 601 675 601C650 601 625 601 600 601C575 601 550 601 525 601C500 601 475 601 450 601C425 601 400 601 375 601C350 601 325 601 300 601C275 601 250 601 225 601C200 601 175 601 150 601C125 601 100 601 75 601C50 601 25 601 12.5 601L0 601Z" fill="#55cc93"></path><path d="M0 565L12.5 559.8C25 554.7 50 544.3 75 545.7C100 547 125 560 150 563.3C175 566.7 200 560.3 225 552.3C250 544.3 275 534.7 300 534.7C325 534.7 350 544.3 375 545.2C400 546 425 538 450 536C475 534 500 538 525 541C550 544 575 546 600 542.7C625 539.3 650 530.7 675 525.3C700 520 725 518 750 520.5C775 523 800 530 825 534C850 538 875 539 887.5 539.5L900 540L900 601L887.5 601C875 601 850 601 825 601C800 601 775 601 750 601C725 601 700 601 675 601C650 601 625 601 600 601C575 601 550 601 525 601C500 601 475 601 450 601C425 601 400 601 375 601C350 601 325 601 300 601C275 601 250 601 225 601C200 601 175 601 150 601C125 601 100 601 75 601C50 601 25 601 12.5 601L0 601Z" fill="#2ec586"></path></svg>