<svg id="visual" viewBox="0 0 1920 1080" width="1920" height="1080" xmlns="http://www.w3.org/2000/svg" xmlns:xlink="http://www.w3.org/1999/xlink" version="1.1"><path d="M0 239L32 221C64 203 128 167 192 204.7C256 242.3 320 353.7 384 362.7C448 371.7 512 278.3 576 217.2C640 156 704 127 768 123.3C832 119.7 896 141.3 960 157.5C1024 173.7 1088 184.3 1152 198.7C1216 213 1280 231 1344 263.5C1408 296 1472 343 1536 362.8C1600 382.7 1664 375.3 1728 377.2C1792 379 1856 390 1888 395.5L1920 401L1920 0L1888 0C1856 0 1792 0 1728 0C1664 0 1600 0 1536 0C1472 0 1408 0 1344 0C1280 0 1216 0 1152 0C1088 0 1024 0 960 0C896 0 832 0 768 0C704 0 640 0 576 0C512 0 448 0 384 0C320 0 256 0 192 0C128 0 64 0 32 0L0 0Z" fill="#f5f5f5"></path><path d="M0 325L32 307C64 289 128 253 192 308.8C256 364.7 320 512.3 384 539.3C448 566.3 512 472.7 576 404.2C640 335.7 704 292.3 768 287C832 281.7 896 314.3 960 328.8C1024 343.3 1088 339.7 1152 341.3C1216 343 1280 350 1344 387.8C1408 425.7 1472 494.3 1536 514.2C1600 534 1664 505 1728 497.7C1792 490.3 1856 504.7 1888 511.8L1920 519L1920 399L1888 393.5C1856 388 1792 377 1728 375.2C1664 373.3 1600 380.7 1536 360.8C1472 341 1408 294 1344 261.5C1280 229 1216 211 1152 196.7C1088 182.3 1024 171.7 960 155.5C896 139.3 832 117.7 768 121.3C704 125 640 154 576 215.2C512 276.3 448 369.7 384 360.7C320 351.7 256 240.3 192 202.7C128 165 64 201 32 219L0 237Z" fill="#b0e2c5"></path><path d="M0 379L32 375.3C64 371.7 128 364.3 192 418.3C256 472.3 320 587.7 384 602.2C448 616.7 512 530.3 576 463.7C640 397 704 350 768 346.3C832 342.7 896 382.3 960 404C1024 425.7 1088 429.3 1152 440.2C1216 451 1280 469 1344 496C1408 523 1472 559 1536 569.8C1600 580.7 1664 566.3 1728 564.5C1792 562.7 1856 573.3 1888 578.7L1920 584L1920 517L1888 509.8C1856 502.7 1792 488.3 1728 495.7C1664 503 1600 532 1536 512.2C1472 492.3 1408 423.7 1344 385.8C1280 348 1216 341 1152 339.3C1088 337.7 1024 341.3 960 326.8C896 312.3 832 279.7 768 285C704 290.3 640 333.7 576 402.2C512 470.7 448 564.3 384 537.3C320 510.3 256 362.7 192 306.8C128 251 64 287 32 305L0 323Z" fill="#5fce98"></path><path d="M0 509L32 498.2C64 487.3 128 465.7 192 505.2C256 544.7 320 645.3 384 661.5C448 677.7 512 609.3 576 548.2C640 487 704 433 768 433C832 433 896 487 960 508.7C1024 530.3 1088 519.7 1152 516C1216 512.3 1280 515.7 1344 553.3C1408 591 1472 663 1536 686.5C1600 710 1664 685 1728 676C1792 667 1856 674 1888 677.5L1920 681L1920 582L1888 576.7C1856 571.3 1792 560.7 1728 562.5C1664 564.3 1600 578.7 1536 567.8C1472 557 1408 521 1344 494C1280 467 1216 449 1152 438.2C1088 427.3 1024 423.7 960 402C896 380.3 832 340.7 768 344.3C704 348 640 395 576 461.7C512 528.3 448 614.7 384 600.2C320 585.7 256 470.3 192 416.3C128 362.3 64 369.7 32 373.3L0 377Z" fill="#2ec586"></path><path d="M0 584L32 589.5C64 595 128 606 192 652.8C256 699.7 320 782.3 384 789.5C448 796.7 512 728.3 576 688.7C640 649 704 638 768 648.8C832 659.7 896 692.3 960 692.3C1024 692.3 1088 659.7 1152 647C1216 634.3 1280 641.7 1344 681.3C1408 721 1472 793 1536 820C1600 847 1664 829 1728 830.8C1792 832.7 1856 854.3 1888 865.2L1920 876L1920 679L1888 675.5C1856 672 1792 665 1728 674C1664 683 1600 708 1536 684.5C1472 661 1408 589 1344 551.3C1280 513.7 1216 510.3 1152 514C1088 517.7 1024 528.3 960 506.7C896 485 832 431 768 431C704 431 640 485 576 546.2C512 607.3 448 675.7 384 659.5C320 643.3 256 542.7 192 503.2C128 463.7 64 485.3 32 496.2L0 507Z" fill="#5fce98"></path><path d="M0 714L32 705C64 696 128 678 192 717.5C256 757 320 854 384 870.2C448 886.3 512 821.7 576 773.2C640 724.7 704 692.3 768 706.7C832 721 896 782 960 787.3C1024 792.7 1088 742.3 1152 731.7C1216 721 1280 750 1344 795C1408 840 1472 901 1536 911.7C1600 922.3 1664 882.7 1728 875.5C1792 868.3 1856 893.7 1888 906.3L1920 919L1920 874L1888 863.2C1856 852.3 1792 830.7 1728 828.8C1664 827 1600 845 1536 818C1472 791 1408 719 1344 679.3C1280 639.7 1216 632.3 1152 645C1088 657.7 1024 690.3 960 690.3C896 690.3 832 657.7 768 646.8C704 636 640 647 576 686.7C512 726.3 448 794.7 384 787.5C320 780.3 256 697.7 192 650.8C128 604 64 593 32 587.5L0 582Z" fill="#b0e2c5"></path><path d="M0 1081L32 1081C64 1081 128 1081 192 1081C256 1081 320 1081 384 1081C448 1081 512 1081 576 1081C640 1081 704 1081 768 1081C832 1081 896 1081 960 1081C1024 1081 1088 1081 1152 1081C1216 1081 1280 1081 1344 1081C1408 1081 1472 1081 1536 1081C1600 1081 1664 1081 1728 1081C1792 1081 1856 1081 1888 1081L1920 1081L1920 917L1888 904.3C1856 891.7 1792 866.3 1728 873.5C1664 880.7 1600 920.3 1536 909.7C1472 899 1408 838 1344 793C1280 748 1216 719 1152 729.7C1088 740.3 1024 790.7 960 785.3C896 780 832 719 768 704.7C704 690.3 640 722.7 576 771.2C512 819.7 448 884.3 384 868.2C320 852 256 755 192 715.5C128 676 64 694 32 703L0 712Z" fill="#f5f5f5"></path></svg>