<svg id="visual" viewBox="0 0 1920 1080" width="1920" height="1080" xmlns="http://www.w3.org/2000/svg" xmlns:xlink="http://www.w3.org/1999/xlink" version="1.1"><rect x="0" y="0" width="1920" height="1080" fill="#f5f5f5"></rect><path d="M0 600L64 560.5C128 521 256 442 384 438.3C512 434.7 640 506.3 768 537.3C896 568.3 1024 558.7 1152 561C1280 563.3 1408 577.7 1536 589.5C1664 601.3 1792 610.7 1856 615.3L1920 620L1920 0L1856 0C1792 0 1664 0 1536 0C1408 0 1280 0 1152 0C1024 0 896 0 768 0C640 0 512 0 384 0C256 0 128 0 64 0L0 0Z" fill="#8bf8cb"></path><path d="M0 412L64 393C128 374 256 336 384 344.7C512 353.3 640 408.7 768 435.8C896 463 1024 462 1152 446.8C1280 431.7 1408 402.3 1536 384.3C1664 366.3 1792 359.7 1856 356.3L1920 353L1920 0L1856 0C1792 0 1664 0 1536 0C1408 0 1280 0 1152 0C1024 0 896 0 768 0C640 0 512 0 384 0C256 0 128 0 64 0L0 0Z" fill="#6fe7b4"></path><path d="M0 254L64 272.5C128 291 256 328 384 322.5C512 317 640 269 768 268.8C896 268.7 1024 316.3 1152 333.5C1280 350.7 1408 337.3 1536 334C1664 330.7 1792 337.3 1856 340.7L1920 344L1920 0L1856 0C1792 0 1664 0 1536 0C1408 0 1280 0 1152 0C1024 0 896 0 768 0C640 0 512 0 384 0C256 0 128 0 64 0L0 0Z" fill="#52d69d"></path><path d="M0 233L64 212.8C128 192.7 256 152.3 384 130C512 107.7 640 103.3 768 105.5C896 107.7 1024 116.3 1152 122.7C1280 129 1408 133 1536 128C1664 123 1792 109 1856 102L1920 95L1920 0L1856 0C1792 0 1664 0 1536 0C1408 0 1280 0 1152 0C1024 0 896 0 768 0C640 0 512 0 384 0C256 0 128 0 64 0L0 0Z" fill="#2ec586"></path></svg>