<svg id="visual" viewBox="0 0 1920 1080" width="1920" height="1080" xmlns="http://www.w3.org/2000/svg" xmlns:xlink="http://www.w3.org/1999/xlink" version="1.1"><rect x="0" y="0" width="1920" height="1080" fill="#2ec586"></rect><path d="M0 205L45.7 261.5C91.3 318 182.7 431 274.2 488.3C365.7 545.7 457.3 547.3 548.8 504.5C640.3 461.7 731.7 374.3 823 374.3C914.3 374.3 1005.7 461.7 1097 447.3C1188.3 433 1279.7 317 1371.2 302C1462.7 287 1554.3 373 1645.8 376.7C1737.3 380.3 1828.7 301.7 1874.3 262.3L1920 223L1920 1081L1874.3 1081C1828.7 1081 1737.3 1081 1645.8 1081C1554.3 1081 1462.7 1081 1371.2 1081C1279.7 1081 1188.3 1081 1097 1081C1005.7 1081 914.3 1081 823 1081C731.7 1081 640.3 1081 548.8 1081C457.3 1081 365.7 1081 274.2 1081C182.7 1081 91.3 1081 45.7 1081L0 1081Z" fill="#935dff"></path><path d="M0 371L45.7 389.8C91.3 408.7 182.7 446.3 274.2 448.8C365.7 451.3 457.3 418.7 548.8 423.3C640.3 428 731.7 470 823 476.3C914.3 482.7 1005.7 453.3 1097 467.7C1188.3 482 1279.7 540 1371.2 562.3C1462.7 584.7 1554.3 571.3 1645.8 547C1737.3 522.7 1828.7 487.3 1874.3 469.7L1920 452L1920 1081L1874.3 1081C1828.7 1081 1737.3 1081 1645.8 1081C1554.3 1081 1462.7 1081 1371.2 1081C1279.7 1081 1188.3 1081 1097 1081C1005.7 1081 914.3 1081 823 1081C731.7 1081 640.3 1081 548.8 1081C457.3 1081 365.7 1081 274.2 1081C182.7 1081 91.3 1081 45.7 1081L0 1081Z" fill="#8c53fe"></path><path d="M0 786L45.7 746.2C91.3 706.3 182.7 626.7 274.2 623.2C365.7 619.7 457.3 692.3 548.8 692.3C640.3 692.3 731.7 619.7 823 584.3C914.3 549 1005.7 551 1097 577.3C1188.3 603.7 1279.7 654.3 1371.2 691.5C1462.7 728.7 1554.3 752.3 1645.8 761.8C1737.3 771.3 1828.7 766.7 1874.3 764.3L1920 762L1920 1081L1874.3 1081C1828.7 1081 1737.3 1081 1645.8 1081C1554.3 1081 1462.7 1081 1371.2 1081C1279.7 1081 1188.3 1081 1097 1081C1005.7 1081 914.3 1081 823 1081C731.7 1081 640.3 1081 548.8 1081C457.3 1081 365.7 1081 274.2 1081C182.7 1081 91.3 1081 45.7 1081L0 1081Z" fill="#8448fc"></path><path d="M0 878L45.7 869.8C91.3 861.7 182.7 845.3 274.2 842.8C365.7 840.3 457.3 851.7 548.8 836.7C640.3 821.7 731.7 780.3 823 783.8C914.3 787.3 1005.7 835.7 1097 849.3C1188.3 863 1279.7 842 1371.2 826.2C1462.7 810.3 1554.3 799.7 1645.8 779.8C1737.3 760 1828.7 731 1874.3 716.5L1920 702L1920 1081L1874.3 1081C1828.7 1081 1737.3 1081 1645.8 1081C1554.3 1081 1462.7 1081 1371.2 1081C1279.7 1081 1188.3 1081 1097 1081C1005.7 1081 914.3 1081 823 1081C731.7 1081 640.3 1081 548.8 1081C457.3 1081 365.7 1081 274.2 1081C182.7 1081 91.3 1081 45.7 1081L0 1081Z" fill="#7c3cfb"></path><path d="M0 838L45.7 859.5C91.3 881 182.7 924 274.2 939.3C365.7 954.7 457.3 942.3 548.8 928.7C640.3 915 731.7 900 823 907.2C914.3 914.3 1005.7 943.7 1097 937.3C1188.3 931 1279.7 889 1371.2 880C1462.7 871 1554.3 895 1645.8 905C1737.3 915 1828.7 911 1874.3 909L1920 907L1920 1081L1874.3 1081C1828.7 1081 1737.3 1081 1645.8 1081C1554.3 1081 1462.7 1081 1371.2 1081C1279.7 1081 1188.3 1081 1097 1081C1005.7 1081 914.3 1081 823 1081C731.7 1081 640.3 1081 548.8 1081C457.3 1081 365.7 1081 274.2 1081C182.7 1081 91.3 1081 45.7 1081L0 1081Z" fill="#732ff9"></path></svg>